<svg width="69" height="69" viewBox="0 0 69 69" fill="none" xmlns="http://www.w3.org/2000/svg">
<path d="M33.4152 26.3363L34.0239 26.8063L34.6344 26.3386C35.8922 25.375 37.4344 24.9136 38.9832 25.0298C40.5304 25.1459 41.9937 25.8318 43.1073 26.9737C43.7121 27.6105 44.1917 28.3668 44.5171 29.2003C44.8433 30.0356 45.0076 30.9308 44.9997 31.834C44.9919 32.7373 44.8121 33.6291 44.4716 34.4581C44.1311 35.2869 43.6372 36.0354 43.0198 36.6614L43.0143 36.667L43.0088 36.6727L35.805 44.2119C35.8045 44.2124 35.804 44.2129 35.8035 44.2135C35.3124 44.7217 34.6552 45 33.9782 45C33.3012 45 32.644 44.7217 32.1529 44.2135C32.1524 44.2129 32.1519 44.2124 32.1514 44.2119L24.9476 36.6727L24.9476 36.6727L24.9423 36.6672C23.7662 35.4551 23.0704 33.8184 23.0051 32.0848C22.9397 30.351 23.5103 28.6614 24.5931 27.3558C25.675 26.0512 27.1857 25.2284 28.8167 25.041C30.4472 24.8536 32.09 25.3133 33.4152 26.3363Z" stroke="white" stroke-width="2"/>
</svg>
